<svg xmlns="http://www.w3.org/2000/svg" xml:space="preserve" viewBox="0 0 200 200"><g fill-opacity=".996"><path fill="#c63" d="M104.56 10H44.999c-5.54 0-10 4.46-10 10v160c0 5.54 4.46 10 10 10h110c5.54 0 10-4.46 10-10V69.91L104.56 10.004z"/><path fill="#bfbfbf" d="M165 69.906 104.561 10v49.906c0 5.54 4.46 10 10 10z"/><path fill="#fff" d="M69.844 166.87q-2.656 4.375-6.406 6.594-3.719 2.219-6.844 2.219-4.375 0-7.875-3.782-3.469-3.78-3.469-11.469 0-6.062 2.313-10.812 2.312-4.78 6.187-7.53 3.875-2.782 9.594-2.782 1.656 0 5 .344.5.062 1.5.156v-15.531h5.844v50.438h-5.844zm0-6.906v-14.97q-3.094-.812-5.75-.812-5.375 0-8.969 4.157-3.562 4.156-3.562 11.312 0 5.187 1.937 7.843 1.969 2.625 4.469 2.625 2.719 0 6-2.75t5.875-7.406zm18.719 14.75h-6.719l13.72-18.281-12.813-16.625h7.438l9.093 11.719 8.844-11.72h6.594l-12.125 16.063 14.406 18.844h-7.469l-10.625-13.906zm42.906 0-10.625-18.906-10.625 18.906H103.5l13.72-18.281-12.813-16.625h7.438l9.093 11.719 8.844-11.72h6.594l-12.125 16.063 14.406 18.844z" aria-label="dwg"/></g></svg>